# xmcd CD database file
#
# Track frame offsets:
#	150
#	18027
#	38047
#	55932
#	75712
#	95912
#	116912
#	124935
#	143770
#	160957
#
# Disc length: 2462 seconds
#
# Revision: 0
# Processed by: cddbd v1.5PL3 Copyright (c) Steve Scherf et al.
# Submitted via: CDex 1.50
#
DISCID=83099c0a
DTITLE=You - 南向き
DYEAR=1996
DGENRE=JPop
TTITLE0=風になろう
TTITLE1=悪い人
TTITLE2=デートしましょ
TTITLE3=愛をこめて
TTITLE4=雨があがった
TTITLE5=未来
TTITLE6=ひまわりの花
TTITLE7=好きなんです
TTITLE8=幸せに
TTITLE9=水無月の宵
EXTD=YEAR: 1996
EXTT0=
EXTT1=
EXTT2=
EXTT3=
EXTT4=
EXTT5=
EXTT6=
EXTT7=
EXTT8=
EXTT9=
PLAYORDER=
